{
.appVersion = "983";
copyright = "Copyright © 2014, 2015 Adobe Systems Incorporated (http://www.adobe.com/).";
customParameters = (
{
name = description;
value = "Dr. Ken Lunde (project architect, glyph set definition & overall production); Masataka HATTORI 服部正貴 (production & ideograph elements)";
},
{
name = license;
value = "This Font Software is licensed under the SIL Open Font License, Version 1.1. This Font Software is distributed on an \"AS IS\" BASIS, WITHOUT WARRANTIES OR CONDITIONS OF ANY KIND, either express or implied. See the SIL Open Font License for the specific language, permissions and limitations governing your use of this Font Software.";
},
{
name = licenseURL;
value = "http://scripts.sil.org/OFL";
},
{
name = vendorID;
value = GOOG;
},
{
name = panose;
value = (
2,
11,
2,
0,
0,
0,
0,
0,
0,
0
);
},
{
name = unicodeRanges;
value = (
0,
1,
28,
29,
36,
42,
43,
44,
45,
48,
49,
50,
51,
52,
54,
55,
56,
57,
59,
61,
65,
66,
68
);
},
{
name = codePageRanges;
value = (
1252,
1250,
1251,
1258,
932,
936,
949,
1361
);
},
{
name = ROS;
value = "Adobe, Identity, 0";
},
{
name = glyphOrder;
value = (
.notdef,
space
);
}
);
date = "2015-06-15 05:05:21 +0000";
designer = "Ryoko NISHIZUKA 西塚涼子 (kana & ideographs); Paul D. Hunt (Latin, Greek & Cyrillic); Wenlong ZHANG 张文龙 (bopomofo); Sandoll Communication 산돌커뮤니케이션, Soo-young JANG 장수영 & Joo-yeon KANG 강주연 (hangul elements, letters & syllables)";
designerURL = "http://www.adobe.com/type/";
familyName = "Yaku Han JP";
fontMaster = (
{
alignmentZones = (
"{1900, 0}",
"{1100, 0}",
"{1100, 0}",
"{1100, 0}",
"{1100, 0}",
"{1100, 0}",
"{1100, 0}",
"{1100, 0}",
"{1100, 0}",
"{1100, 0}",
"{1100, 0}",
"{1100, 0}",
"{726, 14}",
"{726, 13}",
"{726, 13}",
"{726, 12}",
"{726, 12}",
"{721, 0}",
"{704, 13}",
"{704, 12}",
"{527, 13}",
"{526, 14}",
"{526, 13}",
"{523, 0}",
"{0, 0}",
"{0, -12}",
"{0, -13}",
"{0, -13}",
"{0, -13}",
"{0, -14}",
"{0, -14}",
"{-210, 0}",
"{-224, -12}",
"{-243, -13}",
"{-243, -14}",
"{-250, 0}",

glyphs = (
{
glyphname = .notdef;
lastChange = "2017-04-15 13:11:54 +0000";
layers = (
{
layerId = "0651C370-C2E1-4295-9ACE-B281E7C91CB0";
paths = (
{
closed = 1;
nodes = (
"100 -120 LINE",
"900 -120 LINE",
"900 880 LINE",
"100 880 LINE"
);
},
{
closed = 1;
nodes = (
"500 421 LINE",
"182 830 LINE",
"818 830 LINE"
);
},
{
closed = 1;
nodes = (
"532 380 LINE",
"850 789 LINE",
"850 -29 LINE"
);
},
{
closed = 1;
nodes = (
"182 -70 LINE",
"500 339 LINE",
"818 -70 LINE"
);
},
{
closed = 1;
nodes = (
"150 789 LINE",
"468 380 LINE",
"150 -29 LINE"
);
}
);
width = 1000;
}
);
note = .notdef;
},
{
glyphname = "comma-han";
lastChange = "2017-04-16 02:25:25 +0000";
layers = (
{
layerId = "0651C370-C2E1-4295-9ACE-B281E7C91CB0";
paths = (
{
closed = 1;
nodes = (
"306 -19 LINE",
"232 65 OFFCURVE",
"148 148 OFFCURVE",
"75 206 CURVE",
"50 182 LINE",
"122 126 OFFCURVE",
"209 41 OFFCURVE",
"277 -43 CURVE"
);
}
);
vertWidth = 1000;
width = 506;
}
);
note = cid01390;
unicode = 3001;
},
{
glyphname = ellipsis;
lastChange = "2017-04-15 13:11:54 +0000";
layers = (
{
layerId = "0651C370-C2E1-4295-9ACE-B281E7C91CB0";
paths = (
{
closed = 1;
nodes = (
"117 352 OFFCURVE",
"139 330 OFFCURVE",
"167 330 CURVE SMOOTH",
"195 330 OFFCURVE",
"217 352 OFFCURVE",
"217 380 CURVE SMOOTH",
"217 408 OFFCURVE",
"195 430 OFFCURVE",
"167 430 CURVE SMOOTH",
"139 430 OFFCURVE",
"117 408 OFFCURVE",
"117 380 CURVE SMOOTH"
);
},
{
closed = 1;
nodes = (
"450 352 OFFCURVE",
"472 330 OFFCURVE",
"500 330 CURVE SMOOTH",
"528 330 OFFCURVE",
"550 352 OFFCURVE",
"550 380 CURVE SMOOTH",
"550 408 OFFCURVE",
"528 430 OFFCURVE",
"500 430 CURVE SMOOTH",
"472 430 OFFCURVE",
"450 408 OFFCURVE",
"450 380 CURVE SMOOTH"
);
},
{
closed = 1;
nodes = (
"783 352 OFFCURVE",
"805 330 OFFCURVE",
"833 330 CURVE SMOOTH",
"861 330 OFFCURVE",
"883 352 OFFCURVE",
"883 380 CURVE SMOOTH",
"883 408 OFFCURVE",
"861 430 OFFCURVE",
"833 430 CURVE SMOOTH",
"805 430 OFFCURVE",
"783 408 OFFCURVE",
"783 380 CURVE SMOOTH"
);
}
);
width = 1000;
}
);
note = cid00728;
unicode = 2026;
},
{
glyphname = "period-han";
lastChange = "2017-04-16 02:25:30 +0000";
layers = (
{
layerId = "0651C370-C2E1-4295-9ACE-B281E7C91CB0";
paths = (
{
closed = 1;
nodes = (
"115 240 OFFCURVE",
"50 176 OFFCURVE",
"50 97 CURVE SMOOTH",
"50 18 OFFCURVE",
"115 -46 OFFCURVE",
"193 -46 CURVE SMOOTH",
"272 -46 OFFCURVE",
"336 18 OFFCURVE",
"336 97 CURVE SMOOTH",
"336 176 OFFCURVE",
"272 240 OFFCURVE",
"193 240 CURVE SMOOTH"
);
},
{
closed = 1;
nodes = (
"131 -16 OFFCURVE",
"80 34 OFFCURVE",
"80 97 CURVE SMOOTH",
"80 159 OFFCURVE",
"131 210 OFFCURVE",
"193 210 CURVE SMOOTH",
"256 210 OFFCURVE",
"306 159 OFFCURVE",
"306 97 CURVE SMOOTH",
"306 34 OFFCURVE",
"256 -16 OFFCURVE",
"193 -16 CURVE SMOOTH"
);
}
);
vertWidth = 1000;
width = 736;
}
);
note = cid01391;
unicode = 3002;
},
{
glyphname = colon.full;
lastChange = "2017-04-16 02:25:44 +0000";
layers = (
{
layerId = "0651C370-C2E1-4295-9ACE-B281E7C91CB0";
paths = (
{
closed = 1;
nodes = (
"234 572 OFFCURVE",
"262 591 OFFCURVE",
"262 628 CURVE SMOOTH",
"262 665 OFFCURVE",
"234 684 OFFCURVE",
"206 684 CURVE SMOOTH",
"178 684 OFFCURVE",
"150 665 OFFCURVE",
"150 628 CURVE SMOOTH",
"150 591 OFFCURVE",
"178 572 OFFCURVE",
"206 572 CURVE SMOOTH"
);
},
{
closed = 1;
nodes = (
"234 70 OFFCURVE",
"262 89 OFFCURVE",
"262 126 CURVE SMOOTH",
"262 163 OFFCURVE",
"234 182 OFFCURVE",
"206 182 CURVE SMOOTH",
"178 182 OFFCURVE",
"150 163 OFFCURVE",
"150 126 CURVE SMOOTH",
"150 89 OFFCURVE",
"178 70 OFFCURVE",
"206 70 CURVE SMOOTH"
);
}
);
vertWidth = 1000;
width = 412;
}
);
note = cid59017;
unicode = FF1A;
},
{
glyphname = exclam.full;
lastChange = "2017-04-16 02:25:44 +0000";
layers = (
{
layerId = "0651C370-C2E1-4295-9ACE-B281E7C91CB0";
paths = (
{
closed = 1;
nodes = (
"192 226 LINE",
"220 226 LINE",
"234 660 LINE",
"234 748 LINE",
"178 748 LINE",
"178 660 LINE"
);
},
{
closed = 1;
nodes = (
"234 0 OFFCURVE",
"262 20 OFFCURVE",
"262 58 CURVE SMOOTH",
"262 96 OFFCURVE",
"234 116 OFFCURVE",
"206 116 CURVE SMOOTH",
"178 116 OFFCURVE",
"150 96 OFFCURVE",
"150 58 CURVE SMOOTH",
"150 20 OFFCURVE",
"178 0 OFFCURVE",
"206 0 CURVE SMOOTH"
);
}
);
width = 412;
}
);
note = cid58992;
unicode = FF01;
},
{
glyphname = question.full;
lastChange = "2017-04-16 02:25:44 +0000";
layers = (
{
layerId = "0651C370-C2E1-4295-9ACE-B281E7C91CB0";
paths = (
{
closed = 1;
nodes = (
"386 226 LINE",
"349 388 OFFCURVE",
"608 432 OFFCURVE",
"608 588 CURVE SMOOTH",
"608 685 OFFCURVE",
"533 762 OFFCURVE",
"396 762 CURVE SMOOTH",
"286 762 OFFCURVE",
"218 718 OFFCURVE",
"150 652 CURVE",
"175 628 LINE",
"242 698 OFFCURVE",
"318 730 OFFCURVE",
"394 730 CURVE SMOOTH",
"519 730 OFFCURVE",
"570 664 OFFCURVE",
"570 586 CURVE SMOOTH",
"570 456 OFFCURVE",
"312 402 OFFCURVE",
"352 226 CURVE"
);
},
{
closed = 1;
nodes = (
"316 20 OFFCURVE",
"344 0 OFFCURVE",
"372 0 CURVE SMOOTH",
"400 0 OFFCURVE",
"428 20 OFFCURVE",
"428 58 CURVE SMOOTH",
"428 96 OFFCURVE",
"400 116 OFFCURVE",
"372 116 CURVE SMOOTH",
"344 116 OFFCURVE",
"316 96 OFFCURVE",
"316 58 CURVE SMOOTH"
);
}
);
width = 758;
}
);
note = cid59022;
unicode = FF1F;
},
{
glyphname = semicolon.full;
lastChange = "2017-04-16 02:25:44 +0000";
layers = (
{
layerId = "0651C370-C2E1-4295-9ACE-B281E7C91CB0";
paths = (
{
closed = 1;
nodes = (
"270 572 OFFCURVE",
"298 591 OFFCURVE",
"298 628 CURVE SMOOTH",
"298 665 OFFCURVE",
"270 684 OFFCURVE",
"242 684 CURVE SMOOTH",
"214 684 OFFCURVE",
"186 665 OFFCURVE",
"186 628 CURVE SMOOTH",
"186 591 OFFCURVE",
"214 572 OFFCURVE",
"242 572 CURVE SMOOTH"
);
},
{
closed = 1;
nodes = (
"163 -76 LINE",
"250 -36 OFFCURVE",
"311 38 OFFCURVE",
"311 147 CURVE SMOOTH",
"311 203 OFFCURVE",
"289 240 OFFCURVE",
"248 240 CURVE SMOOTH",
"221 240 OFFCURVE",
"195 224 OFFCURVE",
"195 186 CURVE SMOOTH",
"195 149 OFFCURVE",
"217 133 OFFCURVE",
"249 133 CURVE SMOOTH",
"257 133 OFFCURVE",
"265 134 OFFCURVE",
"273 137 CURVE",
"270 45 OFFCURVE",
"229 -10 OFFCURVE",
"150 -51 CURVE"
);
}
);
vertWidth = 1000;
width = 461;
}
);
note = cid59018;
unicode = FF1B;
},
{
glyphname = anglebracketleft;
lastChange = "2017-04-16 02:26:11 +0000";
layers = (
{
layerId = "0651C370-C2E1-4295-9ACE-B281E7C91CB0";
paths = (
{
closed = 1;
nodes = (
"237 380 LINE",
"535 825 LINE",
"508 840 LINE",
"200 380 LINE",
"508 -80 LINE",
"535 -65 LINE"
);
}
);
vertWidth = 1000;
width = 565;
}
);
note = cid01397;
unicode = 3008;
},
{
glyphname = anglebracketright;
lastChange = "2017-04-16 02:26:25 +0000";
layers = (
{
layerId = "0651C370-C2E1-4295-9ACE-B281E7C91CB0";
paths = (
{
closed = 1;
nodes = (
"57 -80 LINE",
"365 380 LINE",
"57 840 LINE",
"30 825 LINE",
"328 380 LINE",
"30 -65 LINE"
);
}
);
vertWidth = 1000;
width = 565;
}
);
note = cid01398;
unicode = 3009;
},
{
glyphname = blacklenticularbracketleft;
lastChange = "2017-04-16 02:26:11 +0000";
layers = (
{
layerId = "0651C370-C2E1-4295-9ACE-B281E7C91CB0";
paths = (
{
closed = 1;
nodes = (
"200 840 LINE",
"200 -80 LINE",
"488 -80 LINE",
"488 -75 LINE",
"379 16 OFFCURVE",
"290 180 OFFCURVE",
"290 380 CURVE SMOOTH",
"290 580 OFFCURVE",
"379 744 OFFCURVE",
"488 835 CURVE",
"488 840 LINE"
);
}
);
vertWidth = 1000;
width = 518;
}
);
note = cid01405;
unicode = 3010;
},
{
glyphname = blacklenticularbracketright;
lastChange = "2017-04-16 02:26:25 +0000";
layers = (
{
layerId = "0651C370-C2E1-4295-9ACE-B281E7C91CB0";
paths = (
{
closed = 1;
nodes = (
"318 840 LINE",
"30 840 LINE",
"30 835 LINE",
"139 744 OFFCURVE",
"228 580 OFFCURVE",
"228 380 CURVE SMOOTH",
"228 180 OFFCURVE",
"139 16 OFFCURVE",
"30 -75 CURVE",
"30 -80 LINE",
"318 -80 LINE"
);
}
);
vertWidth = 1000;
width = 518;
}
);
note = cid01406;
unicode = 3011;
},
{
glyphname = braceleft.full;
lastChange = "2017-04-16 02:26:11 +0000";
layers = (
{
layerId = "0651C370-C2E1-4295-9ACE-B281E7C91CB0";
paths = (
{
closed = 1;
nodes = (
"438 -94 LINE",
"438 -68 LINE",
"403 -68 LINE SMOOTH",
"334 -68 OFFCURVE",
"316 -28 OFFCURVE",
"316 50 CURVE SMOOTH",
"316 122 OFFCURVE",
"323 184 OFFCURVE",
"323 265 CURVE SMOOTH",
"323 327 OFFCURVE",
"312 365 OFFCURVE",
"269 378 CURVE",
"269 382 LINE",
"312 395 OFFCURVE",
"323 433 OFFCURVE",
"323 495 CURVE SMOOTH",
"323 576 OFFCURVE",
"316 637 OFFCURVE",
"316 710 CURVE SMOOTH",
"316 789 OFFCURVE",
"334 828 OFFCURVE",
"403 828 CURVE SMOOTH",
"438 828 LINE",
"438 854 LINE",
"404 854 LINE SMOOTH",
"325 854 OFFCURVE",
"285 824 OFFCURVE",
"285 714 CURVE SMOOTH",
"285 633 OFFCURVE",
"294 561 OFFCURVE",
"294 482 CURVE SMOOTH",
"294 438 OFFCURVE",
"277 394 OFFCURVE",
"200 394 CURVE",
"200 366 LINE",
"277 366 OFFCURVE",
"294 322 OFFCURVE",
"294 278 CURVE SMOOTH",
"294 201 OFFCURVE",
"285 128 OFFCURVE",
"285 46 CURVE SMOOTH",
"285 -64 OFFCURVE",
"325 -94 OFFCURVE",
"404 -94 CURVE SMOOTH"
);
}
);
vertWidth = 1000;
width = 468;
}
);
note = cid59082;
unicode = FF5B;
},
{
glyphname = braceright.full;
lastChange = "2017-04-16 02:26:25 +0000";
layers = (
{
layerId = "0651C370-C2E1-4295-9ACE-B281E7C91CB0";
paths = (
{
closed = 1;
nodes = (
"64 -94 LINE SMOOTH",
"143 -94 OFFCURVE",
"183 -64 OFFCURVE",
"183 46 CURVE SMOOTH",
"183 128 OFFCURVE",
"174 201 OFFCURVE",
"174 278 CURVE SMOOTH",
"174 322 OFFCURVE",
"191 366 OFFCURVE",
"268 366 CURVE",
"268 394 LINE",
"191 394 OFFCURVE",
"174 438 OFFCURVE",
"174 482 CURVE SMOOTH",
"174 561 OFFCURVE",
"183 633 OFFCURVE",
"183 714 CURVE SMOOTH",
"183 824 OFFCURVE",
"143 854 OFFCURVE",
"64 854 CURVE SMOOTH",
"30 854 LINE",
"30 828 LINE",
"65 828 LINE SMOOTH",
"134 828 OFFCURVE",
"152 789 OFFCURVE",
"152 710 CURVE SMOOTH",
"152 637 OFFCURVE",
"145 576 OFFCURVE",
"145 495 CURVE SMOOTH",
"145 433 OFFCURVE",
"156 395 OFFCURVE",
"199 382 CURVE",
"199 378 LINE",
"156 365 OFFCURVE",
"145 327 OFFCURVE",
"145 265 CURVE SMOOTH",
"145 184 OFFCURVE",
"152 122 OFFCURVE",
"152 50 CURVE SMOOTH",
"152 -28 OFFCURVE",
"134 -68 OFFCURVE",
"65 -68 CURVE SMOOTH",
"30 -68 LINE",
"30 -94 LINE"
);
}
);
vertWidth = 1000;
width = 468;
}
);
note = cid59084;
unicode = FF5D;
},
{
glyphname = cornerbracketleft;
lastChange = "2017-04-16 02:26:11 +0000";
layers = (
{
layerId = "0651C370-C2E1-4295-9ACE-B281E7C91CB0";
paths = (
{
closed = 1;
nodes = (
"200 186 LINE",
"230 186 LINE",
"230 810 LINE",
"500 810 LINE",
"500 840 LINE",
"200 840 LINE"
);
}
);
vertWidth = 1000;
width = 530;
}
);
note = cid01401;
unicode = 300C;
},
{
glyphname = cornerbracketright;
lastChange = "2017-04-16 02:26:25 +0000";
layers = (
{
layerId = "0651C370-C2E1-4295-9ACE-B281E7C91CB0";
paths = (
{
closed = 1;
nodes = (
"330 574 LINE",
"300 574 LINE",
"300 -50 LINE",
"30 -50 LINE",
"30 -80 LINE",
"330 -80 LINE"
);
}
);
vertWidth = 1000;
width = 530;
}
);
note = cid01402;
unicode = 300D;
},
{
glyphname = dblanglebracketleft;
lastChange = "2017-04-16 02:26:11 +0000";
layers = (
{
layerId = "0651C370-C2E1-4295-9ACE-B281E7C91CB0";
paths = (
{
closed = 1;
nodes = (
"230 380 LINE",
"471 830 LINE",
"446 840 LINE",
"200 380 LINE",
"446 -80 LINE",
"471 -70 LINE"
);
},
{
closed = 1;
nodes = (
"373 380 LINE",
"614 830 LINE",
"589 840 LINE",
"343 380 LINE",
"589 -80 LINE",
"614 -70 LINE"
);
}
);
vertWidth = 1000;
width = 644;
}
);
note = cid01399;
unicode = 300A;
},
{
glyphname = dblanglebracketright;
lastChange = "2017-04-16 02:26:27 +0000";
layers = (
{
layerId = "0651C370-C2E1-4295-9ACE-B281E7C91CB0";
paths = (
{
closed = 1;
nodes = (
"198 -80 LINE",
"444 380 LINE",
"198 840 LINE",
"173 830 LINE",
"414 380 LINE",
"173 -70 LINE"
);
},
{
closed = 1;
nodes = (
"55 -80 LINE",
"301 380 LINE",
"55 840 LINE",
"30 830 LINE",
"271 380 LINE",
"30 -70 LINE"
);
}
);
vertWidth = 1000;
width = 644;
}
);
note = cid01400;
unicode = 300B;
},
{
glyphname = tortoiseshellbracketleft;
lastChange = "2017-04-16 02:26:11 +0000";
layers = (
{
layerId = "0651C370-C2E1-4295-9ACE-B281E7C91CB0";
paths = (
{
closed = 1;
nodes = (
"398 -91 LINE",
"416 -66 LINE",
"231 52 LINE",
"231 708 LINE",
"416 826 LINE",
"398 851 LINE",
"200 722 LINE",
"200 38 LINE"
);
}
);
vertWidth = 1000;
width = 446;
}
);
note = cid01409;
unicode = 3014;
},
{
glyphname = tortoiseshellbracketright;
lastChange = "2017-04-16 02:26:25 +0000";
layers = (
{
layerId = "0651C370-C2E1-4295-9ACE-B281E7C91CB0";
paths = (
{
closed = 1;
nodes = (
"246 38 LINE",
"246 722 LINE",
"48 851 LINE",
"30 826 LINE",
"215 708 LINE",
"215 52 LINE",
"30 -66 LINE",
"48 -91 LINE"
);
}
);
vertWidth = 1000;
width = 446;
}
);
note = cid01410;
unicode = 3015;
},
{
glyphname = whitecornerbracketleft;
lastChange = "2017-04-16 02:26:11 +0000";
layers = (
{
layerId = "0651C370-C2E1-4295-9ACE-B281E7C91CB0";
paths = (
{
closed = 1;
nodes = (
"561 706 LINE",
"561 840 LINE",
"200 840 LINE",
"200 176 LINE",
"349 176 LINE",
"349 706 LINE"
);
},
{
closed = 1;
nodes = (
"539 818 LINE",
"539 728 LINE",
"327 728 LINE",
"327 198 LINE",
"222 198 LINE",
"222 818 LINE"
);
}
);
vertWidth = 1000;
width = 591;
}
);
note = cid01403;
unicode = 300E;
},
{
glyphname = whitecornerbracketright;
lastChange = "2017-04-16 02:26:25 +0000";
layers = (
{
layerId = "0651C370-C2E1-4295-9ACE-B281E7C91CB0";
paths = (
{
closed = 1;
nodes = (
"30 54 LINE",
"30 -80 LINE",
"391 -80 LINE",
"391 584 LINE",
"242 584 LINE",
"242 54 LINE"
);
},
{
closed = 1;
nodes = (
"52 -58 LINE",
"52 32 LINE",
"264 32 LINE",
"264 562 LINE",
"369 562 LINE",
"369 -58 LINE"
);
}
);
vertWidth = 1000;
width = 591;
}
);
note = cid01404;
unicode = 300F;
},
{
glyphname = whitelenticularbracketleft;
lastChange = "2017-04-16 02:26:11 +0000";
layers = (
{
layerId = "0651C370-C2E1-4295-9ACE-B281E7C91CB0";
paths = (
{
closed = 1;
nodes = (
"543 -63 LINE",
"385 8 OFFCURVE",
"280 161 OFFCURVE",
"280 380 CURVE SMOOTH",
"280 599 OFFCURVE",
"385 752 OFFCURVE",
"543 823 CURVE",
"543 840 LINE",
"200 840 LINE",
"200 -80 LINE",
"543 -80 LINE"
);
},
{
closed = 1;
nodes = (
"222 -58 LINE",
"222 818 LINE",
"484 818 LINE",
"388 760 OFFCURVE",
"258 628 OFFCURVE",
"258 380 CURVE SMOOTH",
"258 132 OFFCURVE",
"388 0 OFFCURVE",
"484 -58 CURVE"
);
}
);
vertWidth = 1000;
width = 573;
}
);
note = cid01411;
unicode = 3016;
},
{
glyphname = whitelenticularbracketright;
lastChange = "2017-04-16 02:26:25 +0000";
layers = (
{
layerId = "0651C370-C2E1-4295-9ACE-B281E7C91CB0";
paths = (
{
closed = 1;
nodes = (
"30 -80 LINE",
"373 -80 LINE",
"373 840 LINE",
"30 840 LINE",
"30 823 LINE",
"188 752 OFFCURVE",
"293 599 OFFCURVE",
"293 380 CURVE SMOOTH",
"293 161 OFFCURVE",
"188 8 OFFCURVE",
"30 -63 CURVE"
);
},
{
closed = 1;
nodes = (
"89 -58 LINE",
"185 0 OFFCURVE",
"315 132 OFFCURVE",
"315 380 CURVE SMOOTH",
"315 628 OFFCURVE",
"185 760 OFFCURVE",
"89 818 CURVE",
"351 818 LINE",
"351 -58 LINE"
);
}
);
vertWidth = 1000;
width = 573;
}
);
note = cid01412;
unicode = 3017;
},
{
glyphname = bracketleft.full;
lastChange = "2017-04-16 02:26:11 +0000";
layers = (
{
layerId = "0651C370-C2E1-4295-9ACE-B281E7C91CB0";
paths = (
{
closed = 1;
nodes = (
"200 -80 LINE",
"450 -80 LINE",
"450 -54 LINE",
"230 -54 LINE",
"230 814 LINE",
"450 814 LINE",
"450 840 LINE",
"200 840 LINE"
);
}
);
vertWidth = 1000;
width = 480;
}
);
note = cid59050;
unicode = FF3B;
},
{
glyphname = bracketright.full;
lastChange = "2017-04-16 02:26:25 +0000";
layers = (
{
layerId = "0651C370-C2E1-4295-9ACE-B281E7C91CB0";
paths = (
{
closed = 1;
nodes = (
"280 840 LINE",
"30 840 LINE",
"30 814 LINE",
"250 814 LINE",
"250 -54 LINE",
"30 -54 LINE",
"30 -80 LINE",
"280 -80 LINE"
);
}
);
vertWidth = 1000;
width = 480;
}
);
note = cid59052;
unicode = FF3D;
},
{
glyphname = parenleft.full;
lastChange = "2017-04-16 02:26:11 +0000";
layers = (
{
layerId = "0651C370-C2E1-4295-9ACE-B281E7C91CB0";
paths = (
{
closed = 1;
nodes = (
"426 -72 LINE",
"296 59 OFFCURVE",
"232 215 OFFCURVE",
"232 380 CURVE SMOOTH",
"232 545 OFFCURVE",
"296 701 OFFCURVE",
"426 832 CURVE",
"401 851 LINE",
"269 714 OFFCURVE",
"200 557 OFFCURVE",
"200 380 CURVE SMOOTH",
"200 203 OFFCURVE",
"269 46 OFFCURVE",
"401 -91 CURVE"
);
}
);
vertWidth = 1000;
width = 456;
}
);
note = cid58999;
unicode = FF08;
},
{
glyphname = parenright.full;
lastChange = "2017-04-16 02:26:25 +0000";
layers = (
{
layerId = "0651C370-C2E1-4295-9ACE-B281E7C91CB0";
paths = (
{
closed = 1;
nodes = (
"30 832 LINE",
"160 701 OFFCURVE",
"224 545 OFFCURVE",
"224 380 CURVE SMOOTH",
"224 215 OFFCURVE",
"160 59 OFFCURVE",
"30 -72 CURVE",
"55 -91 LINE",
"187 46 OFFCURVE",
"256 203 OFFCURVE",
"256 380 CURVE SMOOTH",
"256 557 OFFCURVE",
"187 714 OFFCURVE",
"55 851 CURVE"
);
}
);
vertWidth = 1000;
width = 456;
}
);
note = cid59000;
unicode = FF09;
},
{
glyphname = "dot-kata";
lastChange = "2017-04-16 02:25:44 +0000";
layers = (
{
layerId = "0651C370-C2E1-4295-9ACE-B281E7C91CB0";
paths = (
{
closed = 1;
nodes = (
"150 333 OFFCURVE",
"188 295 OFFCURVE",
"235 295 CURVE SMOOTH",
"282 295 OFFCURVE",
"320 333 OFFCURVE",
"320 380 CURVE SMOOTH",
"320 427 OFFCURVE",
"282 465 OFFCURVE",
"235 465 CURVE SMOOTH",
"188 465 OFFCURVE",
"150 427 OFFCURVE",
"150 380 CURVE SMOOTH"
);
}
